<?xml version="1.0" encoding="UTF-8" standalone="no"?>
<svg
   xmlns:dc="http://purl.org/dc/elements/1.1/"
   xmlns:cc="http://creativecommons.org/ns#"
   xmlns:rdf="http://www.w3.org/1999/02/22-rdf-syntax-ns#"
   xmlns:svg="http://www.w3.org/2000/svg"
   xmlns="http://www.w3.org/2000/svg"
   xmlns:sodipodi="http://sodipodi.sourceforge.net/DTD/sodipodi-0.dtd"
   xmlns:inkscape="http://www.inkscape.org/namespaces/inkscape"
   width="40"
   height="40"
   viewBox="0 0 40 40"
   fill="none"
   version="1.1"
   id="svg6"
   sodipodi:docname="facebook_.svg"
   enable-background="new"
   inkscape:version="0.92.5 (2060ec1f9f, 2020-04-08)">
  <metadata
     id="metadata12">
    <rdf:RDF>
      <cc:Work
         rdf:about="">
        <dc:format>image/svg+xml</dc:format>
        <dc:type
           rdf:resource="http://purl.org/dc/dcmitype/StillImage" />
        <dc:title></dc:title>
      </cc:Work>
    </rdf:RDF>
  </metadata>
  <defs
     id="defs10" />
  <sodipodi:namedview
     pagecolor="#ffffff"
     bordercolor="#666666"
     borderopacity="1"
     objecttolerance="10"
     gridtolerance="10"
     guidetolerance="10"
     inkscape:pageopacity="0"
     inkscape:pageshadow="2"
     inkscape:window-width="1920"
     inkscape:window-height="1024"
     id="namedview8"
     showgrid="false"
     inkscape:zoom="14.831565"
     inkscape:cx="-4.1865399"
     inkscape:cy="18.135945"
     inkscape:window-x="0"
     inkscape:window-y="28"
     inkscape:window-maximized="1"
     inkscape:current-layer="svg6" />
  <g
     inkscape:groupmode="layer"
     id="layer2"
     inkscape:label="Layer 2"
     style="display:inline">
    <g
       id="g881">
      <path
         style="display:inline;fill:#f7f7f7"
         d="M 20 0 C 8.95431 0 0 8.95431 0 20 C 0 31.0457 8.95431 40 20 40 C 31.0457 40 40 31.0457 40 20 C 40 8.95431 31.0457 0 20 0 z M 23.173828 6.6660156 L 26.667969 6.6660156 L 26.667969 11.666016 L 23.167969 11.666016 C 22.337969 11.666016 21.667969 12.335363 21.667969 13.164062 L 21.667969 16.666016 L 26.666016 16.666016 L 26.666016 21.666016 L 21.666016 21.666016 L 21.666016 33.332031 L 16.666016 33.332031 L 16.666016 21.666016 L 11.666016 21.666016 L 11.666016 16.666016 L 16.666016 16.666016 L 16.666016 14.574219 C 16.666016 12.593019 17.289297 10.089443 18.529297 8.7207031 C 19.769297 7.3494531 21.318828 6.6660156 23.173828 6.6660156 z "
         id="path2" />
    </g>
  </g>
</svg>
