<?xml version="1.0" encoding="UTF-8" standalone="no"?>
<svg
   xmlns:dc="http://purl.org/dc/elements/1.1/"
   xmlns:cc="http://creativecommons.org/ns#"
   xmlns:rdf="http://www.w3.org/1999/02/22-rdf-syntax-ns#"
   xmlns:svg="http://www.w3.org/2000/svg"
   xmlns="http://www.w3.org/2000/svg"
   xmlns:sodipodi="http://sodipodi.sourceforge.net/DTD/sodipodi-0.dtd"
   xmlns:inkscape="http://www.inkscape.org/namespaces/inkscape"
   width="40"
   height="40"
   viewBox="0 0 40 40"
   fill="none"
   version="1.1"
   id="svg1027"
   sodipodi:docname="instagram.svg"
   inkscape:version="0.92.5 (2060ec1f9f, 2020-04-08)">
  <metadata
     id="metadata1033">
    <rdf:RDF>
      <cc:Work
         rdf:about="">
        <dc:format>image/svg+xml</dc:format>
        <dc:type
           rdf:resource="http://purl.org/dc/dcmitype/StillImage" />
        <dc:title></dc:title>
      </cc:Work>
    </rdf:RDF>
  </metadata>
  <defs
     id="defs1031" />
  <sodipodi:namedview
     pagecolor="#ffffff"
     bordercolor="#666666"
     borderopacity="1"
     objecttolerance="10"
     gridtolerance="10"
     guidetolerance="10"
     inkscape:pageopacity="0"
     inkscape:pageshadow="2"
     inkscape:window-width="1920"
     inkscape:window-height="1024"
     id="namedview1029"
     showgrid="false"
     inkscape:zoom="10.4875"
     inkscape:cx="-3.3440072"
     inkscape:cy="7.0172213"
     inkscape:window-x="0"
     inkscape:window-y="28"
     inkscape:window-maximized="1"
     inkscape:current-layer="layer3" />
  <g
     inkscape:groupmode="layer"
     id="layer3"
     inkscape:label="Layer 1"
     style="display:inline">
    <path
       style="fill:#f7f7f7"
       d="M 20 0 C 8.95431 0 0 8.95431 0 20 C 0 31.0457 8.95431 40 20 40 C 31.0457 40 40 31.0457 40 20 C 40 8.95431 31.0457 0 20 0 z M 20.009766 5 C 24.084366 5 24.592819 5.01756 26.199219 5.09375 C 27.793919 5.16407 28.884244 5.4218056 29.839844 5.7910156 C 30.824844 6.1719456 31.663594 6.6873413 32.496094 7.5195312 C 33.334494 8.3517313 33.845444 9.19117 34.214844 10.1875 C 34.584144 11.1369 34.841709 12.232172 34.912109 13.826172 C 34.982409 15.426172 35 15.936666 35 20.009766 C 35 24.082866 34.982409 24.591506 34.912109 26.191406 C 34.841709 27.785506 34.584144 28.874878 34.214844 29.830078 C 33.833744 30.814678 33.316875 31.654128 32.484375 32.486328 C 31.651775 33.318528 30.813125 33.833944 29.828125 34.214844 C 28.878325 34.584044 27.7822 34.841809 26.1875 34.912109 C 24.5869 34.982409 24.076653 35 20.001953 35 C 15.927353 35 15.418859 34.982409 13.818359 34.912109 C 12.223659 34.841809 11.133334 34.584044 10.177734 34.214844 C 9.1927444 33.833944 8.3540044 33.318528 7.5214844 32.486328 C 6.6831044 31.654128 6.1720963 30.816572 5.7851562 29.826172 C 5.4157963 28.876772 5.1582506 27.779547 5.0878906 26.185547 C 5.0175406 24.585647 5 24.075053 5 20.001953 C 5 15.928953 5.0175406 15.420253 5.0878906 13.814453 C 5.1582506 12.220453 5.4157963 11.129128 5.7851562 10.173828 C 6.1720963 9.1892981 6.6831044 8.3517313 7.5214844 7.5195312 C 8.3540044 6.6814813 9.1928037 6.1719463 10.183594 5.7851562 C 11.133394 5.4159463 12.229519 5.1582106 13.824219 5.0878906 C 15.424819 5.0175606 15.935066 5 20.009766 5 z M 20.009766 7.7011719 C 15.999566 7.7011719 15.524366 7.7187325 13.947266 7.7890625 C 12.487466 7.8535225 11.689809 8.0995675 11.162109 8.3046875 C 10.464409 8.5801375 9.96515 8.9022475 9.4375 9.4296875 C 8.91571 9.9512775 8.5880494 10.456897 8.3183594 11.154297 C 8.1131594 11.681797 7.8672244 12.4724 7.8027344 13.9375 C 7.7323844 15.514 7.7148438 15.995247 7.7148438 19.998047 C 7.7148438 24.000747 7.7323844 24.474341 7.8027344 26.056641 C 7.8672244 27.515941 8.1131594 28.312344 8.3183594 28.839844 C 8.5939094 29.537244 8.9157094 30.036953 9.4433594 30.564453 C 9.9651494 31.086053 10.470269 31.414094 11.167969 31.683594 C 11.695569 31.888794 12.487425 32.134719 13.953125 32.199219 C 15.530225 32.269519 16.011325 32.287109 20.015625 32.287109 C 24.019925 32.287109 24.493172 32.269519 26.076172 32.199219 C 27.535972 32.134719 28.333728 31.888794 28.861328 31.683594 C 29.559028 31.408194 30.058238 31.086094 30.585938 30.558594 C 31.107738 30.036994 31.435378 29.531384 31.705078 28.833984 C 31.910278 28.306584 32.156203 27.515881 32.220703 26.050781 C 32.291103 24.474281 32.308594 23.992934 32.308594 19.990234 C 32.308594 15.987534 32.291103 15.514041 32.220703 13.931641 C 32.156203 12.472441 31.910278 11.675838 31.705078 11.148438 C 31.429478 10.451038 31.107778 9.9512781 30.580078 9.4238281 C 30.058278 8.9022481 29.553069 8.5742775 28.855469 8.3046875 C 28.327769 8.0995675 27.536012 7.8535225 26.070312 7.7890625 C 24.493212 7.7187325 24.019966 7.7011719 20.009766 7.7011719 z M 28.023438 10.193359 C 29.017537 10.193359 29.822266 10.998487 29.822266 11.992188 C 29.822266 12.985888 29.017538 13.791016 28.023438 13.791016 C 27.029338 13.791016 26.222656 12.985888 26.222656 11.992188 C 26.222656 10.998487 27.029338 10.193359 28.023438 10.193359 z M 20.009766 12.296875 C 24.266166 12.296875 27.71875 15.749106 27.71875 20.003906 C 27.71875 24.258606 24.266166 27.708984 20.009766 27.708984 C 15.753366 27.708984 12.298828 24.258606 12.298828 20.003906 C 12.298828 15.749106 15.753366 12.296875 20.009766 12.296875 z M 20.009766 15.003906 C 17.248366 15.003906 15.007812 17.243606 15.007812 20.003906 C 15.007813 22.764206 17.248366 25.001953 20.009766 25.001953 C 22.771166 25.001953 25.009766 22.764206 25.009766 20.003906 C 25.009766 17.243606 22.771166 15.003906 20.009766 15.003906 z "
       id="path1019" />
  </g>
  <g
     inkscape:groupmode="layer"
     id="layer4"
     inkscape:label="Layer 2" />
</svg>
