<?xml version="1.0" encoding="UTF-8" standalone="no"?>
<svg
   xmlns:dc="http://purl.org/dc/elements/1.1/"
   xmlns:cc="http://creativecommons.org/ns#"
   xmlns:rdf="http://www.w3.org/1999/02/22-rdf-syntax-ns#"
   xmlns:svg="http://www.w3.org/2000/svg"
   xmlns="http://www.w3.org/2000/svg"
   xmlns:sodipodi="http://sodipodi.sourceforge.net/DTD/sodipodi-0.dtd"
   xmlns:inkscape="http://www.inkscape.org/namespaces/inkscape"
   width="40"
   height="40"
   viewBox="0 0 40 40"
   fill="none"
   version="1.1"
   id="svg1130"
   sodipodi:docname="telegram.svg"
   inkscape:version="0.92.5 (2060ec1f9f, 2020-04-08)">
  <metadata
     id="metadata1136">
    <rdf:RDF>
      <cc:Work
         rdf:about="">
        <dc:format>image/svg+xml</dc:format>
        <dc:type
           rdf:resource="http://purl.org/dc/dcmitype/StillImage" />
        <dc:title></dc:title>
      </cc:Work>
    </rdf:RDF>
  </metadata>
  <defs
     id="defs1134" />
  <sodipodi:namedview
     pagecolor="#ffffff"
     bordercolor="#666666"
     borderopacity="1"
     objecttolerance="10"
     gridtolerance="10"
     guidetolerance="10"
     inkscape:pageopacity="0"
     inkscape:pageshadow="2"
     inkscape:window-width="1920"
     inkscape:window-height="1024"
     id="namedview1132"
     showgrid="false"
     inkscape:zoom="20.975"
     inkscape:cx="20"
     inkscape:cy="23.814064"
     inkscape:window-x="0"
     inkscape:window-y="28"
     inkscape:window-maximized="1"
     inkscape:current-layer="layer6" />
  <g
     inkscape:groupmode="layer"
     id="layer6"
     inkscape:label="Layer 2"
     style="display:inline">
    <path
       style="fill:#f7f7f7"
       d="M 20 0 C 8.95431 0 0 8.95431 0 20 C 0 31.0457 8.95431 40 20 40 C 31.0457 40 40 31.0457 40 20 C 40 8.95431 31.0457 0 20 0 z M 29.503906 8.5 C 30.384252 8.5170808 30.683878 9.3283825 30.392578 10.726562 L 26.652344 29.390625 C 26.367344 30.905025 25.646766 31.437628 24.322266 30.611328 L 18.619141 26.111328 L 15.289062 29.431641 C 14.880063 29.804541 14.238872 29.801081 13.888672 29.050781 L 14.265625 24.191406 L 26.302734 12.708984 C 26.976734 12.078784 26.192934 11.925047 25.427734 12.498047 L 11.414062 21.625 L 5.6191406 19.683594 C 4.6223006 19.218994 4.9287606 18.363047 5.8378906 17.935547 L 28.429688 8.7558594 C 28.851762 8.5773019 29.210458 8.4943064 29.503906 8.5 z "
       id="path1126" />
  </g>
  <g
     inkscape:groupmode="layer"
     id="layer5"
     inkscape:label="Layer 1" />
</svg>
